<?xml version="1.0" standalone="no"?>
<!DOCTYPE svg PUBLIC "-//W3C//DTD SVG 20010904//EN"
 "http://www.w3.org/TR/2001/REC-SVG-20010904/DTD/svg10.dtd">
<svg version="1.0" xmlns="http://www.w3.org/2000/svg"
 width="106.000000pt" height="125.000000pt" viewBox="0 0 106.000000 125.000000"
 preserveAspectRatio="xMidYMid meet">

<g transform="translate(0.000000,125.000000) scale(0.100000,-0.100000)"
fill="#000000" stroke="none">
<path d="M100 675 l0 -535 425 0 425 0 0 535 0 535 -425 0 -425 0 0 -535z
m837 113 l1 -408 -414 0 -414 0 0 403 c0 222 3 407 7 410 4 4 189 6 412 5
l406 -3 2 -407z m-677 -543 c0 -37 -4 -65 -10 -65 -6 0 -10 28 -10 65 0 37 4
65 10 65 6 0 10 -28 10 -65z m310 0 c0 -37 -4 -65 -10 -65 -6 0 -10 28 -10 65
0 37 4 65 10 65 6 0 10 -28 10 -65z m-355 23 c1 -15 4 -30 8 -34 19 -19 -13
-54 -49 -54 -23 0 -24 3 -24 61 l0 60 33 -3 c27 -3 32 -7 32 -30z m303 25
c-36 -5 -40 -42 -5 -44 l22 -2 -22 -4 c-18 -3 -23 -11 -23 -34 0 -16 -4 -29
-10 -29 -6 0 -10 27 -10 60 l0 60 38 -1 c30 -2 32 -3 10 -6z m-218 -58 c0 -28
4 -35 20 -35 16 0 20 7 20 35 0 19 5 35 10 35 6 0 10 -20 10 -43 0 -42 -1 -44
-30 -45 -20 0 -33 6 -40 18 -13 24 -13 70 0 70 6 0 10 -16 10 -35z m148 8 c3
-20 -1 -23 -28 -23 -18 0 -29 -4 -25 -10 3 -5 15 -10 26 -10 10 0 19 -4 19
-10 0 -14 -33 -13 -48 2 -16 16 -15 51 0 66 20 20 53 10 56 -15z m200 15 c7
-7 12 -26 12 -44 0 -30 -2 -32 -32 -31 -42 2 -50 32 -14 48 26 12 26 35 0 25
-8 -3 -14 -1 -14 4 0 14 34 12 48 -2z m148 -38 c1 -28 0 -34 -3 -15 -10 62
-43 69 -43 9 0 -46 -18 -44 -22 4 -4 44 -22 49 -26 7 -6 -51 -22 -53 -22 -4
l0 46 58 -1 57 -1 1 -45z m93 31 c12 -22 5 -31 -26 -31 -12 0 -23 -4 -23 -10
0 -5 12 -10 27 -10 21 0 24 -3 15 -12 -18 -18 -62 6 -62 35 0 44 50 65 69 28z"/>
<path d="M487 1144 c-4 -4 -8 -30 -8 -58 -1 -28 -4 -64 -8 -81 l-6 -30 -25 35
-25 35 -6 -85 c-3 -47 -10 -94 -16 -104 -9 -17 -12 -16 -29 13 -10 17 -21 31
-25 31 -4 0 -9 -36 -10 -79 -4 -85 -10 -101 -32 -83 -11 10 -14 -2 -15 -64 -3
-92 12 -147 53 -190 29 -30 97 -55 112 -41 3 3 -11 20 -30 37 -21 18 -42 50
-51 77 -20 59 -20 63 4 63 16 0 20 7 20 34 0 55 16 50 29 -8 6 -29 18 -62 27
-72 13 -17 14 -14 8 33 -4 29 -3 64 0 79 7 27 7 27 28 -15 11 -22 24 -41 28
-41 15 0 30 62 31 124 l1 61 24 -50 c15 -31 23 -63 21 -82 -1 -18 1 -33 5 -33
4 0 8 3 8 8 0 4 10 18 21 32 l20 25 -3 -48 c-2 -35 0 -46 9 -42 19 7 16 -23
-7 -70 -13 -26 -36 -51 -65 -70 -38 -24 -43 -30 -30 -38 23 -12 94 0 132 22
54 34 86 86 90 149 4 50 2 55 -10 40 -19 -24 -27 -13 -16 25 13 47 10 138 -5
167 l-14 24 -15 -34 -14 -35 -8 30 c-18 75 -39 134 -56 156 l-19 24 0 -25 c0
-29 -20 -67 -20 -39 0 8 -16 42 -36 75 -20 32 -41 74 -48 92 -6 18 -15 30 -19
26z"/>
<path d="M428 423 c45 -2 119 -2 165 0 45 1 8 3 -83 3 -91 0 -128 -2 -82 -3z"/>
<path d="M170 270 c0 -11 7 -20 15 -20 8 0 15 9 15 20 0 11 -7 20 -15 20 -8 0
-15 -9 -15 -20z"/>
<path d="M170 220 c0 -15 5 -20 18 -18 9 2 17 10 17 18 0 8 -8 16 -17 18 -13
2 -18 -3 -18 -18z"/>
<path d="M407 253 c-12 -11 -8 -23 8 -23 8 0 15 7 15 15 0 16 -12 20 -23 8z"/>
<path d="M610 210 c0 -5 7 -10 15 -10 8 0 15 5 15 10 0 6 -7 10 -15 10 -8 0
-15 -4 -15 -10z"/>
<path d="M845 249 c-10 -15 1 -23 20 -15 9 3 13 10 10 16 -8 13 -22 13 -30 -1z"/>
<path d="M120 80 c0 -25 4 -30 23 -29 20 0 21 1 2 8 -19 8 -19 8 0 19 20 11
20 11 0 12 l-20 1 20 9 c19 8 19 9 -2 9 -19 1 -23 -4 -23 -29z"/>
<path d="M201 78 c1 -18 3 -25 6 -15 2 9 9 15 14 12 11 -7 11 -3 3 19 -11 27
-24 17 -23 -16z"/>
<path d="M238 85 c-6 -30 -3 -43 8 -33 3 4 4 19 2 35 l-3 28 -7 -30z"/>
<path d="M284 95 c-4 -8 -4 -22 0 -30 7 -20 56 -20 56 0 0 18 -17 20 -22 3 -5
-13 -28 -2 -28 13 0 5 10 14 23 19 l22 9 -23 0 c-12 1 -25 -6 -28 -14z"/>
<path d="M370 80 c0 -16 5 -30 10 -30 6 0 10 14 10 30 0 17 -4 30 -10 30 -5 0
-10 -13 -10 -30z"/>
<path d="M421 78 c1 -19 3 -25 6 -15 5 18 6 18 24 1 18 -17 19 -16 18 17 0 26
-2 29 -8 15 -7 -18 -8 -18 -14 -3 -11 29 -27 19 -26 -15z"/>
<path d="M510 80 c0 -25 4 -30 23 -29 17 1 18 2 4 6 -14 4 -16 8 -6 19 9 11 8
14 -2 14 -11 0 -11 2 1 10 13 8 12 10 -2 10 -13 0 -18 -8 -18 -30z"/>
<path d="M580 80 c0 -24 4 -30 23 -30 18 0 19 2 7 10 -13 9 -13 11 0 20 13 9
13 10 0 10 -13 0 -13 1 0 10 12 8 11 10 -7 10 -19 0 -23 -6 -23 -30z"/>
<path d="M650 80 c0 -16 5 -30 10 -30 6 0 10 5 10 11 0 9 4 9 13 0 11 -9 14
-5 15 19 1 25 -3 30 -24 30 -20 0 -24 -5 -24 -30z m40 16 c0 -3 -4 -8 -10 -11
-5 -3 -10 -1 -10 4 0 6 5 11 10 11 6 0 10 -2 10 -4z"/>
<path d="M730 80 c0 -16 5 -30 10 -30 6 0 10 14 10 30 0 17 -4 30 -10 30 -5 0
-10 -13 -10 -30z"/>
<path d="M780 80 c0 -16 4 -30 9 -30 10 0 22 40 15 52 -11 18 -24 6 -24 -22z"/>
<path d="M817 88 c-7 -23 -1 -38 14 -38 5 0 9 14 9 30 0 35 -15 40 -23 8z"/>
<path d="M874 95 c-4 -8 -4 -22 0 -30 7 -20 56 -20 56 0 0 18 -17 20 -22 3 -5
-13 -28 -2 -28 13 0 5 10 14 23 19 l22 9 -23 0 c-12 1 -25 -6 -28 -14z"/>
</g>
</svg>
